#N canvas 1062 -908 489 664 10;
#X obj 26 223 f;
#X obj 41 197 * 10;
#X obj 51 532 == 1;
#X obj 51 500 +;
#X obj 51 560 sel 1;
#X obj 51 605 bng 15 250 50 0 empty empty empty 17 7 0 10 -262144 -1
-1;
#X obj 26 458 <;
#X obj 91 458 <;
#X obj 121 233 r \$1-xmonster;
#X obj 80 606 s \$1-dead;
#X obj 26 47 inlet;
#X obj 41 167 r \$2-xmissile;
#X obj 41 394 f;
#X obj 106 396 f;
#X obj 26 265 t f f b b;
#X obj 121 338 + \$3;
#X obj 56 337 - \$3;
#X obj 121 255 / 10;
#X obj 53 640 s boum;
#X text 130 99 id monstre / id missile / largeur monstre (je pense)
;
#X connect 0 0 14 0;
#X connect 1 0 0 1;
#X connect 2 0 4 0;
#X connect 3 0 2 0;
#X connect 4 0 5 0;
#X connect 4 0 9 0;
#X connect 5 0 18 0;
#X connect 6 0 3 0;
#X connect 7 0 3 1;
#X connect 8 0 17 0;
#X connect 10 0 0 0;
#X connect 11 0 1 0;
#X connect 12 0 6 1;
#X connect 13 0 7 1;
#X connect 14 0 6 0;
#X connect 14 1 7 0;
#X connect 14 2 12 0;
#X connect 14 3 13 0;
#X connect 15 0 13 0;
#X connect 16 0 12 1;
#X connect 17 0 15 0;
#X connect 17 0 16 0;
