#N canvas 725 53 450 528 10;
#X obj -15 459 bng 15 250 50 0 empty empty empty 17 7 0 10 -262144
-1 -1;
#X obj -15 480 outlet;
#X obj -15 407 sel 1;
#X obj 24 407 sel 1;
#X obj -15 437 onebang;
#X obj -15 382 >;
#X obj 86 378 <;
#X obj -1 315 r son-in-\$1;
#X obj 0 359 + 10;
#X obj 101 348 - 10;
#X obj 107 45 loadbang;
#X obj 107 128 vsl 15 128 0 100 0 0 empty empty limite_\$1 0 -9 0 10
-204800 -1 -1 9525 1;
#X msg 107 78 75;
#X obj 127 271 s limit_\$1;
#X floatatom 127 243 5 0 0 0 - - -;
#X connect 0 0 1 0;
#X connect 2 0 4 0;
#X connect 3 0 4 1;
#X connect 4 0 0 0;
#X connect 5 0 2 0;
#X connect 6 0 3 0;
#X connect 7 0 5 0;
#X connect 7 0 6 0;
#X connect 8 0 5 1;
#X connect 9 0 6 1;
#X connect 10 0 12 0;
#X connect 11 0 13 0;
#X connect 11 0 9 0;
#X connect 11 0 8 0;
#X connect 11 0 14 0;
#X connect 12 0 11 0;
#X coords 0 -1 1 1 60 170 1 100 100;
