#N canvas 400 20 449 464 10;
#X obj 91 387 pix_texture;
#X obj 151 267 pix_info . . . .;
#X floatatom 165 294 5 0 0 0 - - -;
#X floatatom 200 295 5 0 0 0 - - -;
#X obj 91 416 rectangle;
#X obj 91 117 alpha;
#X msg 27 352 quality 0;
#X obj 27 320 loadbang;
#X obj 91 222 pix_image;
#X obj 136 129 inlet;
#X obj 203 177 inlet;
#X obj 332 91 inlet;
#X obj 275 121 \$1;
#X obj 275 91 loadbang;
#X obj 275 157 makefilename monster%d.tif;
#X obj 165 317 / 18;
#X obj 200 317 / 18;
#X msg 275 187 open pictures/\$1;
#X obj 91 74 gemhead 55;
#X obj 91 155 translateXYZ 0 \$2 0;
#X connect 0 0 4 0;
#X connect 1 1 2 0;
#X connect 1 2 3 0;
#X connect 2 0 15 0;
#X connect 3 0 16 0;
#X connect 5 0 19 0;
#X connect 6 0 0 0;
#X connect 7 0 6 0;
#X connect 8 0 1 0;
#X connect 8 0 0 0;
#X connect 9 0 19 1;
#X connect 10 0 8 0;
#X connect 11 0 12 0;
#X connect 12 0 14 0;
#X connect 13 0 12 0;
#X connect 14 0 17 0;
#X connect 15 0 4 1;
#X connect 16 0 4 2;
#X connect 17 0 8 0;
#X connect 18 0 5 0;
#X connect 19 0 8 0;
