#N canvas 61 0 891 550 10;
#X obj 317 302 delay 200;
#X obj 301 248 delay 400;
#X obj 270 52 bng 15 250 50 0 empty empty empty 17 7 0 10 -262144 -1
-1;
#X msg 198 258 0;
#X obj 214 236 s \$1-reset;
#X obj 129 25 inlet;
#X msg 129 103 1;
#X obj 230 522 s score;
#X obj 230 501 \$5;
#X obj 270 75 t b b b b b;
#X obj 183 210 t b b b b b;
#X obj 532 358 gemhead;
#X obj 592 496 loadbang;
#X obj 569 428 r \$1-xmonster;
#X obj 555 550 \$5;
#X obj 183 179 delay 800;
#X obj 532 407 spigot 0;
#X msg 577 319 1;
#X msg 414 227 0;
#X obj 569 450 / 100;
#X obj 532 472 translateXYZ 0 \$2 0;
#X text 380 27 num / hauteur / vitesse / depart / valeur;
#X obj 42 314 moteur \$3 \$1 \$4;
#X obj 42 440 grafik \$1 \$2;
#X obj 532 590 text3d;
#X msg 301 273 open pictures/blackpix.tif;
#X msg 317 327 open pictures/explo2.tif;
#X msg 333 365 open pictures/explo1.tif;
#X obj 282 467 outlet dead;
#X obj 270 29 r \$1-dead;
#X msg 634 542 font minecrafter_3.ttf;
#X msg 592 573 7;
#X connect 0 0 26 0;
#X connect 0 0 17 0;
#X connect 1 0 25 0;
#X connect 2 0 9 0;
#X connect 3 0 22 0;
#X connect 5 0 6 0;
#X connect 6 0 22 0;
#X connect 8 0 7 0;
#X connect 9 0 15 0;
#X connect 9 1 28 0;
#X connect 9 2 1 0;
#X connect 9 3 0 0;
#X connect 9 4 27 0;
#X connect 10 0 23 2;
#X connect 10 1 3 0;
#X connect 10 2 4 0;
#X connect 10 3 8 0;
#X connect 10 4 18 0;
#X connect 11 0 16 0;
#X connect 12 0 31 0;
#X connect 12 0 14 0;
#X connect 12 0 30 0;
#X connect 13 0 19 0;
#X connect 14 0 24 0;
#X connect 15 0 10 0;
#X connect 16 0 20 0;
#X connect 17 0 16 1;
#X connect 18 0 16 1;
#X connect 19 0 20 1;
#X connect 20 0 24 0;
#X connect 22 0 23 0;
#X connect 22 1 2 0;
#X connect 25 0 23 1;
#X connect 26 0 23 1;
#X connect 27 0 23 1;
#X connect 29 0 2 0;
#X connect 30 0 24 0;
#X connect 31 0 24 1;
