#N canvas 36 25 634 687 10;
#X obj 173 323 outlet;
#X obj 97 25 bng 15 250 50 0 empty empty empty 17 7 0 10 -262144 -1
-1;
#X obj 249 25 bng 15 250 50 0 empty empty empty 17 7 0 10 -262144 -1
-1;
#X obj 249 63 float;
#X obj 97 63 float;
#X obj 97 91 - 1;
#X obj 249 91 + 1;
#X obj 45 8 inlet;
#X obj 283 8 inlet;
#X floatatom 173 184 5 0 0 0 - - -;
#X obj 459 -110 tgl 15 0 empty empty empty 17 7 0 10 -262144 -1 -1
0 1;
#X obj 459 -134 inlet;
#X obj 251 111 loadbang;
#X msg 251 167 0;
#X obj 156 -14 gate 2;
#X obj 156 -88 loadbang;
#X msg 156 -67 1;
#X msg 22 134 2;
#X msg 333 133 1;
#X obj 276 37 r \$0-total;
#X obj 124 37 r \$0-total;
#X obj 225 252 s \$0-total;
#X obj 333 154 s \$0-gategd;
#X obj 77 -31 r \$0-gategd;
#X obj 22 156 s \$0-gategd;
#X msg 550 -139 0;
#X obj 550 -235 r reset;
#X obj 264 137 r reset;
#X obj 379 -110 r pause;
#X obj 379 -81 tgl 15 0 empty empty empty 17 7 0 10 -262144 -1 -1 1
1;
#X obj 288 -133 loadbang;
#X msg 288 -98 set 1;
#X obj 379 -48 spigot;
#X obj 459 -31 metro 10;
#X obj 173 252 / 100;
#X obj 333 108 sel 200;
#X obj 22 108 sel -200;
#X msg 515 -183 0;
#X connect 1 0 4 0;
#X connect 2 0 3 0;
#X connect 3 0 6 0;
#X connect 4 0 5 0;
#X connect 5 0 9 0;
#X connect 5 0 36 0;
#X connect 6 0 9 0;
#X connect 6 0 35 0;
#X connect 7 0 1 0;
#X connect 8 0 2 0;
#X connect 9 0 21 0;
#X connect 9 0 34 0;
#X connect 10 0 32 1;
#X connect 10 0 33 0;
#X connect 11 0 10 0;
#X connect 12 0 13 0;
#X connect 13 0 9 0;
#X connect 14 0 4 0;
#X connect 14 1 3 0;
#X connect 15 0 16 0;
#X connect 16 0 14 0;
#X connect 17 0 24 0;
#X connect 18 0 22 0;
#X connect 19 0 3 1;
#X connect 20 0 4 1;
#X connect 23 0 14 0;
#X connect 25 0 33 0;
#X connect 26 0 25 0;
#X connect 26 0 37 0;
#X connect 27 0 13 0;
#X connect 28 0 29 0;
#X connect 29 0 32 0;
#X connect 30 0 31 0;
#X connect 31 0 29 0;
#X connect 32 0 33 0;
#X connect 33 0 14 1;
#X connect 34 0 0 0;
#X connect 35 0 18 0;
#X connect 36 0 17 0;
#X connect 37 0 10 0;
