#N canvas 161 46 1098 561 10;
#X obj 247 24 inlet;
#X obj 247 48 t b b b;
#X obj 162 228 r posx;
#X obj 120 253 f;
#X obj 247 152 f;
#X obj 274 151 + 1;
#X obj 310 83 loadbang;
#X obj 316 241 t b b b;
#X msg 335 277 0;
#X obj 120 285 s \$1-xmissile;
#X text 556 243 Determine l'explosion ou pas des monstres;
#X obj 128 54 r pause;
#X obj 128 83 tgl 15 0 empty empty empty 17 7 0 10 -262144 -1 -1 1
1;
#X obj 63 16 loadbang;
#X msg 161 84 1;
#X obj 128 124 spigot;
#X obj 247 100 metro 2;
#X obj 246 274 / 100;
#X obj 510 213 expornot 2 \$1 6.2;
#X obj 396 212 expornot 1 \$1 9.5;
#X obj 632 213 expornot 3 \$1 5.6;
#X obj 754 213 expornot 4 \$1 5.1;
#X obj 867 213 expornot 5 \$1 6.7;
#X obj 978 214 expornot 6 \$1 7.3;
#X obj 52 366 translateXYZ 0 0.3 0;
#X obj 52 393 alpha;
#X obj 52 473 pix_image;
#X obj 52 552 pix_texture;
#X msg 117 500 quality 0;
#X obj 160 415 loadbang;
#X msg 85 441 open pictures/tir.tif;
#X obj 52 609 square 0.2;
#X obj 52 190 gemhead 20;
#X msg 37 66 1;
#X msg 59 116 0;
#X floatatom 247 219 5 0 0 0 - - -;
#X obj 245 313 - 2.5;
#X msg 340 114 4;
#X obj 664 106 sel 461 471 481;
#X obj 312 16 bng 15 250 50 0 empty empty empty 17 7 0 10 -262144 -1
-1;
#X msg 315 311 -2.5;
#X obj 316 197 sel 675;
#X connect 0 0 1 0;
#X connect 1 0 16 0;
#X connect 1 1 14 0;
#X connect 1 2 3 0;
#X connect 2 0 3 1;
#X connect 3 0 9 0;
#X connect 3 0 24 1;
#X connect 4 0 5 0;
#X connect 4 0 35 0;
#X connect 4 0 38 0;
#X connect 4 0 41 0;
#X connect 5 0 4 1;
#X connect 6 0 37 0;
#X connect 7 0 37 0;
#X connect 7 0 40 0;
#X connect 7 1 8 0;
#X connect 8 0 15 1;
#X connect 8 0 16 0;
#X connect 8 0 32 0;
#X connect 11 0 12 0;
#X connect 12 0 15 0;
#X connect 13 0 33 0;
#X connect 13 0 34 0;
#X connect 14 0 15 1;
#X connect 14 0 32 0;
#X connect 15 0 16 0;
#X connect 16 0 4 0;
#X connect 17 0 36 0;
#X connect 24 0 25 0;
#X connect 25 0 26 0;
#X connect 26 0 27 0;
#X connect 27 0 31 0;
#X connect 28 0 27 0;
#X connect 29 0 30 0;
#X connect 29 0 28 0;
#X connect 30 0 26 0;
#X connect 32 0 24 0;
#X connect 33 0 12 0;
#X connect 34 0 32 0;
#X connect 35 0 17 0;
#X connect 36 0 24 2;
#X connect 37 0 4 0;
#X connect 38 0 18 0;
#X connect 38 0 19 0;
#X connect 38 0 20 0;
#X connect 38 0 21 0;
#X connect 38 0 22 0;
#X connect 38 0 23 0;
#X connect 38 1 18 0;
#X connect 38 1 19 0;
#X connect 38 1 20 0;
#X connect 38 1 21 0;
#X connect 38 1 22 0;
#X connect 38 1 23 0;
#X connect 38 2 18 0;
#X connect 38 2 19 0;
#X connect 38 2 20 0;
#X connect 38 2 21 0;
#X connect 38 2 22 0;
#X connect 38 2 23 0;
#X connect 39 0 1 0;
#X connect 40 0 24 2;
#X connect 41 0 7 0;
