#N canvas 1040 -1061 703 932 10;
#X obj 239 243 float;
#X obj 87 243 float;
#X obj 87 271 - 1;
#X obj 239 271 + 1;
#X floatatom 163 364 5 0 0 0 - - -;
#X obj 420 -38 inlet;
#X obj 533 138 loadbang;
#X obj 146 166 gate 2;
#X obj 146 116 r \$0-gategd;
#X obj 69 503 s \$2-xmonster;
#X obj 266 217 r \$2-xmonster;
#X obj 114 217 r \$2-xmonster;
#X obj 375 101 metro \$1;
#X obj 533 246 \$3;
#X obj 572 190 r reset;
#X obj 571 162 r \$2-reset;
#X obj 560 324 > 0;
#X obj 533 287 t f f;
#X obj 560 355 sel 0 1;
#X obj 560 484 s \$0-gategd;
#X msg 579 381 1;
#X msg 560 415 2;
#X msg 471 -39 0;
#X obj 375 -58 r pause;
#X obj 375 -29 tgl 15 0 empty empty empty 17 7 0 10 -262144 -1 -1 1
1;
#X obj 342 -93 loadbang;
#X obj 163 412 / 100;
#X obj 401 569 s \$2-reset;
#X obj 375 -2 spigot 0;
#X obj 27 -54 bng 15 250 50 0 empty empty empty 17 7 0 10 -262144 -1
-1;
#X msg 342 -58 1;
#X obj 87 323 sel -800;
#X obj 323 288 sel 800;
#X obj 163 503 outlet xpos;
#X obj 428 530 outlet dead;
#X obj 471 -87 r \$2-reset;
#X obj 491 -62 r reset;
#X obj 401 465 t b b;
#X connect 0 0 3 0;
#X connect 1 0 2 0;
#X connect 2 0 4 0;
#X connect 2 0 31 0;
#X connect 3 0 4 0;
#X connect 3 0 32 0;
#X connect 4 0 26 0;
#X connect 4 0 9 0;
#X connect 5 0 12 0;
#X connect 5 0 28 1;
#X connect 6 0 13 0;
#X connect 7 0 1 0;
#X connect 7 1 0 0;
#X connect 8 0 7 0;
#X connect 10 0 0 1;
#X connect 11 0 1 1;
#X connect 12 0 7 1;
#X connect 13 0 17 0;
#X connect 14 0 13 0;
#X connect 15 0 13 0;
#X connect 16 0 18 0;
#X connect 17 0 4 0;
#X connect 17 1 16 0;
#X connect 18 0 21 0;
#X connect 18 1 20 0;
#X connect 20 0 19 0;
#X connect 21 0 19 0;
#X connect 22 0 12 0;
#X connect 22 0 28 1;
#X connect 23 0 24 0;
#X connect 24 0 28 0;
#X connect 25 0 30 0;
#X connect 26 0 33 0;
#X connect 28 0 12 0;
#X connect 28 0 29 0;
#X connect 30 0 24 0;
#X connect 31 0 37 0;
#X connect 32 0 37 0;
#X connect 35 0 22 0;
#X connect 36 0 22 0;
#X connect 37 0 27 0;
#X connect 37 1 34 0;
