#N canvas 58 53 1021 300 10;
#X msg 255 185 draw line;
#X obj 255 157 loadbang;
#X obj 238 130 colorRGB 0 0 0;
#X obj 61 75 gemhead 95;
#X obj 238 77 gemhead 96;
#X msg 267 207 width 3;
#X obj 238 228 rectangle 0.2 2;
#N canvas 349 33 450 300 degrade 0;
#X obj 69 100 pix_image;
#X obj 68 164 pix_texture;
#X obj 69 208 outlet;
#X msg 124 133 quality 0;
#X obj 179 20 loadbang;
#X obj 81 34 inlet;
#X msg 101 67 open ../pictures/degrade.tif;
#X connect 0 0 1 0;
#X connect 1 0 2 0;
#X connect 3 0 1 0;
#X connect 4 0 6 0;
#X connect 4 0 3 0;
#X connect 5 0 0 0;
#X connect 6 0 0 0;
#X restore 61 128 pd degrade;
#X obj 61 152 rectangle 0.2 2;
#X obj 395 158 colorRGB 1 1 1;
#X obj 61 102 translateXYZ \$2 \$3 0;
#X obj 237 104 translateXYZ \$2 \$3 0;
#X obj 498 139 r son-in-\$1;
#X obj 499 160 maxlib/scale 0 100 -2.59 1.28;
#X obj 395 184 translateXYZ \$2 \$3 0;
#X obj 601 90 \$3;
#X obj 601 118 - 2;
#X obj 601 70 bng 15 250 50 0 empty empty empty 17 7 0 10 -262144 -1
-1;
#X obj 628 119 + 2;
#X obj 601 46 loadbang;
#X obj 708 130 gemhead 97;
#X obj 798 140 maxlib/scale 0 100 -2.59 1.28;
#X obj 708 185 translateXYZ \$2 \$3 0;
#X obj 900 77 \$3;
#X obj 900 105 - 2;
#X obj 900 57 bng 15 250 50 0 empty empty empty 17 7 0 10 -262144 -1
-1;
#X obj 927 106 + 2;
#X obj 900 33 loadbang;
#X obj 708 159 colorRGB 0 0 0;
#X obj 797 119 r limit_\$1;
#X obj 395 206 rectangle 0.25 0.04;
#X obj 395 129 gemhead 99;
#X msg 855 205 draw line;
#X obj 855 177 loadbang;
#X msg 867 227 width 3;
#X obj 708 260 rectangle 0.2 0.2;
#X connect 0 0 6 0;
#X connect 1 0 0 0;
#X connect 1 0 5 0;
#X connect 2 0 6 0;
#X connect 3 0 10 0;
#X connect 4 0 11 0;
#X connect 5 0 6 0;
#X connect 7 0 8 0;
#X connect 9 0 14 0;
#X connect 10 0 7 0;
#X connect 11 0 2 0;
#X connect 12 0 13 0;
#X connect 13 0 14 2;
#X connect 14 0 30 0;
#X connect 15 0 16 0;
#X connect 15 0 18 0;
#X connect 16 0 13 3;
#X connect 17 0 15 0;
#X connect 18 0 13 4;
#X connect 19 0 17 0;
#X connect 20 0 28 0;
#X connect 21 0 22 2;
#X connect 22 0 35 0;
#X connect 23 0 24 0;
#X connect 23 0 26 0;
#X connect 24 0 21 3;
#X connect 25 0 23 0;
#X connect 26 0 21 4;
#X connect 27 0 25 0;
#X connect 28 0 22 0;
#X connect 29 0 21 0;
#X connect 31 0 9 0;
#X connect 32 0 35 0;
#X connect 33 0 32 0;
#X connect 33 0 34 0;
#X connect 34 0 35 0;
